# xmcd
#
# Track frame offsets: 
#        150
#        22500
#        44850
#        64050
#        83925
#        106875
#        126900
#        149550
#        168300
#        189225
#        208500
#        232950
#        252750
#        270675
#        290550
#        311250
#
# Disc length: 4421 seconds
#
# Revision: 0
# Processed by: cddbd v1.5.2PL0 Copyright (c) Steve Scherf et al.
# Submitted via: ExactAudioCopyFreeDBPlugin 1.0
#
DISCID=df114310
DTITLE=群星 - 百代唱片：EMI唯我独尊情歌最经典
DYEAR=1996
DGENRE=Pop
TTITLE0=巫启贤 - 爱那么重
TTITLE1=黄莺莺 - 回心转意
TTITLE2=张宇 - 一言难尽
TTITLE3=彭羚 - 随爱而飞
TTITLE4=张信哲 - 过火
TTITLE5=邝美云 - 半个吻
TTITLE6=小刚 - 二分之一的爱情
TTITLE7=杨采妮 - 爱着流泪
TTITLE8=张宇 - 用心良苦（1996年全新重唱版）
TTITLE9=陈晓娟 - 我依然是你的情人
TTITLE10=巫启贤 - 太傻（1996年国语+粤语全新重唱版）
TTITLE11=吴倩莲 - 爱上一个人
TTITLE12=金城武 - 标准情人
TTITLE13=童欣 - 背负你的爱
TTITLE14=陈小霞 - 傀儡尪仔
TTITLE15=谢丽金 - 暗恋你
EXTD=
EXTT0=
EXTT1=
EXTT2=
EXTT3=
EXTT4=
EXTT5=
EXTT6=
EXTT7=
EXTT8=
EXTT9=
EXTT10=
EXTT11=
EXTT12=
EXTT13=
EXTT14=
EXTT15=
PLAYORDER=
